{"title":"Mako Mermaids S03E01 720p WEBRip x264-TheRival","uid":15049611,"size":436593154,"categoryP":"video","categoryS":"hd___tv_shows","magnet":"?xt=urn:btih:66e580dec77000fc0b6eb3c0e7b7961b8d85b8d6&amp;dn=Mako+Mermaids+S03E01+720p+WEBRip+x264-TheRival&amp;tr=udp%3A%2F%2Ftracker.leechers-paradise.org%3A6969&amp;tr=udp%3A%2F%2Fzer0day.ch%3A1337&amp;tr=udp%3A%2F%2Fopen.demonii.com%3A1337&amp;tr=udp%3A%2F%2Ftracker.coppersurfer.tk%3A6969&amp;tr=udp%3A%2F%2Fexodus.desync.com%3A6969","seeders":1,"leechers":0,"uploader":"TheRival","files":2,"time":1466658636,"description":"Screens: \nhttp://extraimago.com/image/aXvv \nhttp://extraimago.com/image/aXvA \nhttp://extraimago.com/image/aXvW\r\n\r\n\r\nID : 1\r\nFormat : AVC\r\nFormat/Info : Advanced Video Codec\r\nFormat profile :   \r\nFormat settings, CABAC : Yes\r\nFormat settings, ReFrames : 2 frames\r\nFormat settings, GOP : M=1, N=24\r\nCodec ID : avc1\r\nCodec ID/Info : Advanced Video Coding\r\nDuration : 24mn 23s\r\nBit rate mode : Variable\r\nBit rate : 2 253 Kbps\r\nMaximum bit rate : 3 456 Kbps\r\nWidth : 1 280 pixels\r\nHeight : 720 pixels\r\nDisplay aspect ratio : 16:9\r\nFrame rate mode : Constant\r\nFrame rate : 25.000 fps\r\nColor space : YUV\r\nChroma subsampling : 4:2:0\r\nBit depth : 8 bits\r\nScan type : Progressive\r\nBits/(Pixel*Frame) : 0.098\r\nStream size : 393 MiB (94%)\r\nEncoded date : UTC 2016-06-23 02:51:29\r\nTagged date : UTC 2016-06-23 02:54:41\r\nColor primaries : BT.709\r\nTransfer characteristics : BT.709\r\nMatrix coefficients : BT.709\r\n\r\nAudio\r\nID : 2\r\nFormat : AAC\r\nFormat/Info : Advanced Audio Codec\r\nFormat profile : LC\r\nCodec ID : 40\r\nDuration : 24mn 23s\r\nBit rate mode : Variable\r\nBit rate : 128 Kbps\r\nMaximum bit rate : 131 Kbps\r\nChannel(s) : 2 channels\r\nChannel positions : Front: L R\r\nSampling rate : 48.0 KHz\r\nFrame rate : 46.875 fps (1024 spf)\r\nCompression mode : Lossy\r\nStream size : 22.3 MiB (5%)\r\nTitle : Undetermined (aac 2.0)\r\nDefault : Yes\r\nAlternate group : 1","torrent":{"xt":"urn:btih:66e580dec77000fc0b6eb3c0e7b7961b8d85b8d6","amp;dn":"Mako+Mermaids+S03E01+720p+WEBRip+x264-TheRival","amp;tr":["udp%3A%2F%2Ftracker.leechers-paradise.org%3A6969","udp%3A%2F%2Fzer0day.ch%3A1337","udp%3A%2F%2Fopen.demonii.com%3A1337","udp%3A%2F%2Ftracker.coppersurfer.tk%3A6969","udp%3A%2F%2Fexodus.desync.com%3A6969"],"infoHash":"66e580dec77000fc0b6eb3c0e7b7961b8d85b8d6","infoHashBuffer":{"type":"Buffer","data":[102,229,128,222,199,112,0,252,11,110,179,192,231,183,150,27,141,133,184,214]},"announce":[],"urlList":[]}}